<?xml version="1.0" standalone="no"?>
<!DOCTYPE svg PUBLIC "-//W3C//DTD SVG 20010904//EN"
 "http://www.w3.org/TR/2001/REC-SVG-20010904/DTD/svg10.dtd">
<svg version="1.0" xmlns="http://www.w3.org/2000/svg"
 width="393.000000pt" height="393.000000pt" viewBox="0 0 393.000000 393.000000"
 preserveAspectRatio="xMidYMid meet">
<metadata>
Created by potrace 1.14, written by Peter Selinger 2001-2017
</metadata>
<g transform="translate(0.000000,393.000000) scale(0.100000,-0.100000)"
fill="#000000" stroke="none">
<path d="M1813 3442 c-34 -15 -86 -49 -116 -75 -30 -27 -67 -57 -83 -67 -43
-27 -72 -67 -112 -160 -15 -34 -30 -128 -27 -165 5 -51 17 -95 27 -95 5 0 7
-4 4 -8 -3 -5 6 -25 20 -45 13 -20 25 -40 26 -44 2 -17 23 -43 34 -43 6 0 11
-10 11 -22 -1 -35 13 -88 24 -88 5 0 9 -6 9 -12 0 -16 66 -61 88 -61 22 0 31
-14 25 -38 -5 -16 -12 -18 -52 -13 l-47 6 3 -39 c1 -22 -3 -42 -10 -48 -6 -6
-19 -24 -27 -40 -9 -17 -18 -28 -21 -25 -3 3 -14 -2 -23 -10 -10 -8 -26 -15
-36 -17 -20 -3 -20 3 -1 72 6 21 8 42 6 46 -3 4 -1 9 4 11 14 5 18 40 4 45
-10 4 -28 -35 -36 -82 -7 -36 -19 -56 -32 -51 -7 2 -18 -7 -24 -20 -10 -22
-14 -23 -33 -13 -13 7 -31 23 -41 36 -10 12 -25 23 -33 23 -15 0 -16 11 -5 50
5 15 2 41 -6 65 -8 22 -16 47 -18 55 -11 42 -51 145 -57 148 -5 2 -8 34 -8 70
0 63 -2 68 -30 87 -16 11 -35 31 -42 44 -14 28 -58 78 -58 67 0 -4 -10 -1 -22
6 -13 7 -27 11 -32 10 -4 -2 -23 -3 -42 -4 -19 -1 -34 -5 -34 -10 0 -5 -6 -8
-12 -6 -7 1 -35 -6 -63 -15 -83 -29 -126 -80 -118 -142 5 -47 5 -58 -3 -88 -7
-31 9 -71 40 -99 10 -10 16 -18 13 -18 -5 0 9 -38 48 -135 5 -11 9 -22 9 -25
1 -3 13 -35 29 -71 21 -50 34 -67 57 -76 21 -8 28 -16 25 -29 -2 -11 -11 -45
-18 -77 -13 -53 -16 -62 -18 -69 0 -2 -2 -14 -4 -28 -2 -14 -6 -38 -10 -55 -3
-16 -9 -43 -12 -60 -7 -38 -11 -59 -13 -65 -13 -38 7 -106 42 -151 20 -24 80
-59 103 -59 26 0 45 -18 45 -42 0 -10 13 -32 28 -49 24 -26 36 -31 86 -35 73
-5 79 -9 60 -38 -14 -22 -13 -25 10 -44 14 -10 23 -22 19 -26 -13 -13 -11
-126 3 -140 12 -13 12 -23 -2 -78 -3 -13 -6 -27 -7 -33 -2 -5 -6 -15 -10 -21
-17 -28 -29 -202 -16 -247 7 -25 6 -61 -4 -121 -13 -83 -14 -147 -3 -233 5
-36 3 -43 -12 -45 -9 0 -22 -2 -29 -2 -17 -2 -36 -22 -40 -43 -10 -54 -17
-151 -13 -165 1 -5 3 -14 4 -20 1 -13 23 -15 208 -21 32 -1 58 -5 58 -9 0 -3
12 -4 28 -2 31 5 22 5 127 1 44 -2 86 1 93 6 6 5 12 6 12 1 0 -11 130 -11 148
-1 6 5 12 4 12 0 0 -8 42 -9 115 -3 17 1 32 1 35 0 12 -5 230 -4 230 1 0 3 26
4 58 4 31 -1 68 1 82 5 15 4 34 1 47 -7 16 -11 27 -12 42 -4 13 7 22 8 26 1 6
-9 74 -4 85 7 7 7 3 226 -5 277 -12 73 -15 100 -19 147 -2 26 -6 51 -8 55 -4
8 -1 236 3 269 1 6 -1 52 -5 103 -6 84 -5 92 11 93 87 7 180 40 167 60 -2 4
-1 10 4 13 5 3 7 30 6 60 -1 44 1 56 15 61 9 2 18 4 21 3 9 -4 83 73 76 79 -3
3 -2 11 3 17 21 25 19 65 -5 112 -13 26 -24 53 -24 60 0 7 -4 14 -8 16 -11 4
-102 185 -102 203 0 8 -4 15 -10 15 -8 0 -17 21 -26 63 -1 4 -3 8 -4 10 -7 7
-6 47 2 47 19 0 29 59 31 194 2 78 7 148 12 155 6 10 4 12 -6 6 -8 -4 -4 2 9
14 25 25 29 72 8 90 -8 7 -15 24 -15 39 0 52 -21 105 -39 100 -4 -1 -25 2 -47
6 -69 14 -98 17 -158 18 -31 0 -60 4 -63 9 -3 5 1 9 9 9 8 0 22 11 31 25 9 14
14 25 10 25 -3 0 0 10 9 23 26 39 34 122 22 217 -6 47 -55 170 -68 170 -7 0
-18 18 -25 40 -6 22 -26 53 -42 69 -17 15 -30 33 -30 40 0 6 -7 11 -15 11 -8
0 -15 5 -15 10 0 6 -11 10 -24 10 -13 0 -42 17 -67 40 -24 22 -47 41 -51 41
-20 3 -24 5 -35 12 -6 4 -15 3 -18 -3 -4 -7 -11 -8 -18 -2 -7 5 -58 10 -113 9
-56 0 -105 3 -110 6 -5 3 -37 -7 -71 -21z"/>
</g>
</svg>
